<?xml version="1.0" encoding="UTF-8"?>
<svg width="111px" height="93px" viewBox="0 0 111 93" version="1.1" xmlns="http://www.w3.org/2000/svg" xmlns:xlink="http://www.w3.org/1999/xlink">
    <title>Navigation</title>
    <defs>
        <path d="M3.53890957,70.4911722 L5.52133144,64.8446878 L13.3689877,64.8446878 L15.3514096,70.4911722 L17.9353939,70.4911722 L10.6619564,50.7626566 L8.22836269,50.7626566 L0.954925193,70.4911722 L3.53890957,70.4911722 Z M12.6443783,62.7528909 L6.24594082,62.7528909 L9.33578457,53.9482034 L9.55453457,53.9482034 L12.6443783,62.7528909 Z M23.8553158,70.4911722 L23.8553158,62.6845316 L28.7088314,62.6845316 L32.9334408,70.4911722 L35.8182064,70.4911722 L31.2518002,62.3017191 C33.7264096,61.5224222 35.2166439,59.3896097 35.2166439,56.6415628 C35.2166439,53.0868753 32.7283627,50.7626566 28.9275814,50.7626566 L21.3943783,50.7626566 L21.3943783,70.4911722 L23.8553158,70.4911722 Z M28.7088314,60.4970316 L23.8553158,60.4970316 L23.8553158,52.9501566 L28.5994564,52.9501566 C31.1424252,52.9501566 32.6736752,54.3583597 32.6736752,56.7235941 C32.6736752,59.1435159 31.2381283,60.4970316 28.7088314,60.4970316 Z M47.6307064,70.9560159 C51.8279721,70.9560159 54.9451596,68.6181253 55.6014096,64.9950784 L53.0994564,64.9950784 C52.4705502,67.2782816 50.3787533,68.6864847 47.6307064,68.6864847 C43.8299252,68.6864847 41.4510189,65.5829691 41.4510189,60.6337503 C41.4510189,55.6845316 43.8299252,52.5673441 47.6170346,52.5673441 C50.3377377,52.5673441 52.4432064,54.1669534 53.0994564,56.7099222 L55.6014096,56.7099222 C55.0135189,52.9091409 51.7732846,50.2978128 47.6170346,50.2978128 C42.2576596,50.2978128 38.9217221,54.2626566 38.9217221,60.6337503 C38.9217221,66.9911722 42.2713314,70.9560159 47.6307064,70.9560159 Z M66.1150814,70.9560159 C70.6268002,70.9560159 73.4842221,68.6454691 73.4842221,65.0224222 C73.4842221,62.1239847 71.8435971,60.5380472 67.7557064,59.5126566 L65.6912533,58.9657816 C62.9705502,58.2685159 61.8904721,57.3798441 61.8904721,55.8349222 C61.8904721,53.8388284 63.6268002,52.5263284 66.2518002,52.5263284 C68.7127377,52.5263284 70.3807064,53.7294534 70.7225033,55.7528909 L73.1971127,55.7528909 C72.9920346,52.5673441 70.1482846,50.2978128 66.3338314,50.2978128 C62.1639096,50.2978128 59.3611752,52.5673441 59.3611752,55.9169534 C59.3611752,58.7196878 60.9060971,60.3329691 64.4744564,61.2353128 L67.0037533,61.8915628 C69.7244564,62.5751566 70.9549252,63.6415628 70.9549252,65.3232034 C70.9549252,67.2782816 68.9998471,68.7138284 66.3475033,68.7138284 C63.5447689,68.7138284 61.5760189,67.4013284 61.2752377,65.3368753 L58.7869564,65.3368753 C59.0467221,68.7411722 61.9314877,70.9560159 66.1150814,70.9560159 Z M78.5018002,52.9091409 C79.4041439,52.9091409 80.1424252,52.1708597 80.1424252,51.2685159 C80.1424252,50.3661722 79.4041439,49.6278909 78.5018002,49.6278909 C77.5994564,49.6278909 76.8611752,50.3661722 76.8611752,51.2685159 C76.8611752,52.1708597 77.5994564,52.9091409 78.5018002,52.9091409 Z M79.6775814,70.4911722 L79.6775814,55.7528909 L77.3260189,55.7528909 L77.3260189,70.4911722 L79.6775814,70.4911722 Z M86.5135189,70.4911722 L86.5135189,61.3583597 C86.5135189,59.2802347 88.0037533,57.6122659 89.9314877,57.6122659 C91.7908627,57.6122659 93.0076596,58.7333597 93.0076596,60.4833597 L93.0076596,70.4911722 L95.3592221,70.4911722 L95.3592221,61.0165628 C95.3592221,59.1435159 96.7264096,57.6122659 98.7771908,57.6122659 C100.855316,57.6122659 101.880706,58.6786722 101.880706,60.8525003 L101.880706,70.4911722 L104.232269,70.4911722 L104.232269,60.3056253 C104.232269,57.2157816 102.550628,55.4931253 99.5428158,55.4931253 C97.5057064,55.4931253 95.8240658,56.5185159 95.0310971,58.0771097 L94.8123471,58.0771097 C94.1287533,56.5458597 92.7342221,55.4931253 90.7381283,55.4931253 C88.7693783,55.4931253 87.2928158,56.4364847 86.6228939,58.0771097 L86.4041439,58.0771097 L86.4041439,55.7528909 L84.1619564,55.7528909 L84.1619564,70.4911722 L86.5135189,70.4911722 Z" id="path-1"></path>
    </defs>
    <g id="Navigation" stroke="none" stroke-width="1" fill="none" fill-rule="evenodd">
        <g id="Navigation/ArcsimLogo" transform="translate(-1.000000, 0.000000)" fill-rule="nonzero">
            <g id="arcsim-final" transform="translate(0.907273, 0.000000)">
                <path d="M44.7729091,27.4772727 C44.5192727,27.5449091 44.2487273,27.6294545 43.9950909,27.6970909 C43.826,27.7478182 43.6738182,27.7985455 43.5047273,27.8492727 C43.3356364,27.9 43.1834545,27.9507273 43.0143636,28.0014545 C42.896,28.0352727 42.7776364,28.086 42.6423636,28.1198182 C42.6423636,28.1198182 42.6254545,28.1198182 42.6254545,28.1198182 C42.3887273,28.1874545 42.152,28.272 41.9321818,28.3565455 C41.78,28.4072727 41.6109091,28.458 41.4587273,28.5256364 L41.2896364,28.83 C42.5409091,28.3903636 43.8090909,27.9845455 45.0772727,27.6463636 L45.2294545,27.3589091 C45.0941818,27.3927273 44.9250909,27.4434545 44.7729091,27.4772727 Z M103.988545,85.5261818 L100.843455,85.5261818 L103.379818,90.1423636 L10.7856364,90.1423636 L13.322,85.5261818 L10.1769091,85.5261818 L6.08490909,93 L108.097455,93 L103.988545,85.5261818 Z M100.826545,79.7432727 L100.691273,79.5065455 L99.8965455,78.0692727 L99.7612727,77.8325455 L99.626,77.5958182 L96.4809091,77.5958182 L96.6161818,77.8325455 L96.7514545,78.0692727 L97.5292727,79.5065455 L97.6645455,79.7432727 L97.7998182,79.98 L100.944909,79.98 L100.826545,79.7432727 Z M14.5394545,77.5958182 L14.4041818,77.8325455 L14.2689091,78.0692727 L13.4910909,79.5065455 L13.3558182,79.7432727 L13.2205455,79.98 L16.3656364,79.98 L16.5009091,79.7432727 L16.6361818,79.5065455 L17.414,78.0692727 L17.5492727,77.8325455 L17.6845455,77.5958182 L14.5394545,77.5958182 Z M38.4489091,34.038 L35.0670909,40.2098182 L38.2121818,40.2098182 L42.3718182,32.6345455 C41.036,33.0234545 39.734,33.4969091 38.4489091,34.038 Z M72.3685455,27.8830909 L72.1994545,27.5787273 L71.2187273,25.7863636 L71.0665455,25.5158182 L70.8974545,25.2114545 C69.7138182,24.9070909 68.5301818,24.6365455 67.3127273,24.3998182 L67.4649091,24.6872727 L67.6001818,24.9409091 L68.5132727,26.598 L68.6654545,26.8854545 L68.8176364,27.156 C70.052,27.4434545 71.2863636,27.7816364 72.5038182,28.1705455 L72.3685455,27.8830909 Z M57.0827273,0.0507272727 L45.2970909,21.5421818 C46.4469091,21.3054545 47.5967273,21.1194545 48.7634545,20.9503636 L57.0827273,5.78290909 L65.2836364,20.7305455 C66.4334545,20.8658182 67.5663636,21.0349091 68.6992727,21.2209091 L57.0827273,0.0507272727 Z M42.8114545,26.0738182 L42.8114545,26.0738182 L42.6592727,26.3612727 L41.6447273,28.2043636 L41.4756364,28.5087273 L41.3065455,28.8130909 C42.5578182,28.3734545 43.826,27.9676364 45.0941818,27.6294545 L45.2463636,27.342 L45.3985455,27.0545455 L46.3454545,25.3467273 L46.4976364,25.0761818 L46.6667273,24.7887273 C45.4323636,25.0592727 44.2149091,25.3805455 42.9974545,25.7525455 L42.8114545,26.0738182 Z M75.3445455,33.3109091 C74.0932727,32.8374545 72.8081818,32.4316364 71.5230909,32.0596364 L75.9870909,40.1929091 L79.1321818,40.1929091 L75.3445455,33.3109091 Z M44.7729091,27.4772727 C44.5192727,27.5449091 44.2487273,27.6294545 43.9950909,27.6970909 C43.826,27.7478182 43.6738182,27.7985455 43.5047273,27.8492727 C43.3356364,27.9 43.1834545,27.9507273 43.0143636,28.0014545 C42.896,28.0352727 42.7776364,28.086 42.6423636,28.1198182 C42.6423636,28.1198182 42.6254545,28.1198182 42.6254545,28.1198182 C42.3887273,28.1874545 42.152,28.272 41.9321818,28.3565455 C41.78,28.4072727 41.6109091,28.458 41.4587273,28.5256364 L41.2896364,28.83 C42.5409091,28.3903636 43.8090909,27.9845455 45.0772727,27.6463636 L45.2294545,27.3589091 C45.0941818,27.3927273 44.9250909,27.4434545 44.7729091,27.4772727 Z" id="Shape" fill="#0D0248"></path>
                <path d="M95.1112727,40.3281818 C95.1112727,40.6494545 94.9929091,40.9538182 94.7730909,41.1736364 C94.604,41.3596364 94.3672727,41.4610909 94.1305455,41.4949091 C94.0290909,41.5118182 93.9276364,41.5118182 93.8261818,41.4949091 C93.5894545,41.4610909 93.3527273,41.3596364 93.1667273,41.1736364 C92.8454545,40.8354545 92.5410909,40.5141818 92.2198182,40.2098182 C86.4707273,34.4776364 79.7070909,30.4701818 72.5207273,28.2043636 C71.3032727,27.8154545 70.0689091,27.4772727 68.8345455,27.1898182 C61.0563636,25.3974545 52.9061818,25.5496364 45.0941818,27.6463636 C43.826,27.9845455 42.5578182,28.3903636 41.3065455,28.83 C34.6950909,31.1803636 28.4218182,34.9849091 22.9263636,40.2098182 C22.4867273,40.6325455 22.0470909,41.0721818 21.6074545,41.5118182 C21.4045455,41.7147273 21.2016364,41.9345455 20.9987273,42.1374545 C20.7789091,42.3572727 20.4914545,42.4925455 20.204,42.4925455 C19.8996364,42.4925455 19.6121818,42.3741818 19.4092727,42.1374545 C19.2401818,41.9683636 19.1387273,41.7485455 19.1049091,41.5118182 C19.088,41.4441818 19.088,41.3765455 19.088,41.292 C19.088,40.9707273 19.2063636,40.6663636 19.4261818,40.4465455 C19.4938182,40.362 19.5783636,40.2943636 19.646,40.2098182 C26.2743636,33.3109091 34.2892727,28.3903636 43.0143636,25.7694545 C44.2318182,25.3974545 45.4492727,25.0930909 46.6836364,24.8056364 C50.15,24.0278182 53.7009091,23.622 57.3025455,23.5712727 C57.5223636,23.5712727 57.7421818,23.5712727 57.962,23.5712727 C61.1409091,23.5712727 64.286,23.8587273 67.3465455,24.4336364 C68.5470909,24.6534545 69.7476364,24.924 70.9312727,25.2452727 C79.9269091,27.6125455 88.1278182,32.4823636 94.8069091,39.4996364 C94.9929091,39.6856364 95.1112727,39.9392727 95.1281818,40.2098182 C95.1112727,40.2436364 95.1112727,40.2774545 95.1112727,40.3281818 Z" id="Path" fill="#FFFFFF"></path>
                <g id="Group" transform="translate(18.952727, 23.841818)" fill="#00BCE8">
                    <path d="M1.25127273,18.7352727 C1.01454545,18.7352727 0.794727273,18.6338182 0.608727273,18.4478182 C0.253636364,18.0758182 0.253636364,17.4670909 0.608727273,17.0950909 C21.5590909,-4.93745455 55.2250909,-5.36018182 75.6681818,16.1481818 C76.0232727,16.5201818 76.0232727,17.1289091 75.6681818,17.5009091 C75.3130909,17.8729091 74.7381818,17.8729091 74.3830909,17.5009091 C54.6501818,-3.26345455 22.1170909,-2.84072727 1.87690909,18.4478182 C1.70781818,18.6338182 1.47109091,18.7352727 1.25127273,18.7352727 Z" id="Path"></path>
                    <path d="M22.692,4.70072727 C15.6916364,7.11872727 9.04636364,11.1092727 3.29727273,16.7061818 C2.85763636,17.1289091 2.43490909,17.5516364 2.01218182,18.0081818 L2.33345455,18.0081818 C2.75618182,17.5685455 3.19581818,17.1289091 3.63545455,16.7061818 L3.97363636,16.7061818 C9.45218182,11.4812727 15.7423636,7.67672727 22.3538182,5.32636364 L22.5229091,5.022 C22.6750909,4.97127273 22.8272727,4.92054545 22.9963636,4.85290909 C23.2330909,4.76836364 23.4698182,4.70072727 23.6896364,4.61618182 C23.6896364,4.61618182 23.7065455,4.61618182 23.7065455,4.61618182 C23.8249091,4.58236364 23.9432727,4.53163636 24.0785455,4.49781818 C24.2476364,4.44709091 24.3998182,4.39636364 24.5689091,4.34563636 C24.7210909,4.29490909 24.8901818,4.24418182 25.0592727,4.19345455 C25.3129091,4.10890909 25.5834545,4.04127273 25.8370909,3.97363636 C25.9892727,3.92290909 26.1583636,3.88909091 26.3105455,3.85527273 L26.4627273,3.56781818 C25.1945455,3.88909091 23.9263636,4.26109091 22.692,4.70072727 Z M22.692,4.70072727 C15.6916364,7.11872727 9.04636364,11.1092727 3.29727273,16.7061818 L3.63545455,16.7061818 C3.65236364,16.6892727 3.66927273,16.6723636 3.68618182,16.6554545 C3.72,16.6216364 3.75381818,16.5878182 3.80454545,16.554 C3.87218182,16.5032727 3.92290909,16.4356364 3.99054545,16.3849091 C4.02436364,16.3510909 4.04127273,16.3341818 4.07509091,16.3003636 C4.10890909,16.2665455 4.14272727,16.2327273 4.17654545,16.1989091 C4.34563636,16.0298182 4.53163636,15.8607273 4.71763636,15.7085455 C4.90363636,15.5394545 5.07272727,15.3872727 5.25872727,15.2181818 C5.44472727,15.066 5.61381818,14.8969091 5.79981818,14.7447273 C5.98581818,14.5925455 6.15490909,14.4403636 6.34090909,14.2712727 C6.52690909,14.1190909 6.71290909,13.9669091 6.89890909,13.8147273 C7.08490909,13.6625455 7.28781818,13.5103636 7.47381818,13.3412727 C7.82890909,13.0538182 8.184,12.7832727 8.53909091,12.5127273 C8.77581818,12.3436364 8.99563636,12.1745455 9.23236364,12.0054545 C9.40145455,11.8870909 9.57054545,11.7687273 9.73963636,11.6503636 C9.87490909,11.5489091 9.99327273,11.4643636 10.1285455,11.3629091 C10.2469091,11.2783636 10.3821818,11.1938182 10.5005455,11.1092727 C10.6189091,11.0247273 10.7372727,10.9401818 10.8556364,10.8725455 C10.9909091,10.788 11.1261818,10.6865455 11.2614545,10.602 C11.2614545,10.602 11.2614545,10.602 11.2614545,10.602 C11.5150909,10.4329091 11.7856364,10.2638182 12.0392727,10.0947273 C12.0561818,10.0947273 12.0561818,10.0778182 12.0730909,10.0778182 C12.1407273,10.044 12.2083636,9.99327273 12.276,9.95945455 C12.276,9.95945455 12.2929091,9.94254545 12.2929091,9.94254545 C12.2929091,9.94254545 12.2929091,9.94254545 12.3098182,9.94254545 C12.3098182,9.94254545 12.3267273,9.94254545 12.3267273,9.92563636 C12.3605455,9.90872727 12.4112727,9.87490909 12.4450909,9.858 C12.5803636,9.77345455 12.7156364,9.68890909 12.834,9.62127273 C12.8847273,9.58745455 12.9354545,9.55363636 12.9861818,9.51981818 C13.1045455,9.45218182 13.2229091,9.38454545 13.3412727,9.31690909 C13.3412727,9.31690909 13.3581818,9.31690909 13.3581818,9.3 C13.4258182,9.26618182 13.4934545,9.21545455 13.5610909,9.18163636 C13.6118182,9.14781818 13.6625455,9.13090909 13.7132727,9.09709091 C13.7809091,9.06327273 13.8316364,9.02945455 13.8992727,8.99563636 C14.0514545,8.89418182 14.2205455,8.80963636 14.3727273,8.72509091 C14.6094545,8.58981818 14.8461818,8.45454545 15.0829091,8.33618182 C15.1843636,8.28545455 15.2689091,8.23472727 15.3703636,8.184 C15.4718182,8.13327273 15.5563636,8.08254545 15.6578182,8.03181818 C15.7592727,7.98109091 15.8607273,7.93036364 15.9621818,7.87963636 C16.0636364,7.82890909 16.1650909,7.77818182 16.2665455,7.72745455 C16.4694545,7.626 16.6723636,7.52454545 16.8752727,7.42309091 C17.0781818,7.32163636 17.2810909,7.22018182 17.484,7.11872727 C17.5178182,7.10181818 17.5685455,7.08490909 17.6023636,7.068 C17.6361818,7.05109091 17.6869091,7.03418182 17.7207273,7.01727273 C17.7207273,7.01727273 17.7207273,7.01727273 17.7207273,7.01727273 C17.7376364,7.01727273 17.7545455,7.00036364 17.7545455,7.00036364 C17.856,6.94963636 17.9743636,6.89890909 18.0758182,6.84818182 C18.2787273,6.74672727 18.4985455,6.66218182 18.7014545,6.56072727 C18.8874545,6.47618182 19.0903636,6.39163636 19.2763636,6.30709091 C19.4623636,6.22254545 19.6652727,6.138 19.8512727,6.07036364 C19.9189091,6.03654545 19.9865455,6.01963636 20.0710909,5.98581818 C20.2401818,5.91818182 20.4261818,5.85054545 20.5952727,5.78290909 C20.7981818,5.69836364 21.018,5.61381818 21.2209091,5.54618182 C21.3223636,5.51236364 21.4238182,5.46163636 21.5421818,5.42781818 C21.5929091,5.41090909 21.6436364,5.394 21.6943636,5.37709091 C21.7450909,5.36018182 21.7958182,5.34327273 21.8465455,5.32636364 C21.8465455,5.32636364 21.8634545,5.32636364 21.8634545,5.30945455 C21.8634545,5.30945455 21.8803636,5.30945455 21.8803636,5.29254545 C21.8972727,5.29254545 21.8972727,5.27563636 21.9141818,5.27563636 C21.9141818,5.27563636 21.9141818,5.27563636 21.9141818,5.27563636 L21.9141818,5.27563636 C21.948,5.25872727 21.9987273,5.24181818 22.0325455,5.24181818 C22.0325455,5.24181818 22.0494545,5.24181818 22.0494545,5.22490909 C22.0832727,5.208 22.1170909,5.19109091 22.1509091,5.19109091 C22.2523636,5.15727273 22.3538182,5.12345455 22.4552727,5.08963636 C22.6074545,5.03890909 22.7596364,4.98818182 22.9287273,4.92054545 C23.1654545,4.836 23.4021818,4.76836364 23.622,4.68381818 C23.622,4.68381818 23.6389091,4.68381818 23.6389091,4.68381818 C23.7572727,4.65 23.8756364,4.59927273 24.0109091,4.56545455 C24.18,4.51472727 24.3321818,4.464 24.5012727,4.41327273 C24.6534545,4.36254545 24.8225455,4.31181818 24.9916364,4.26109091 C25.2452727,4.17654545 25.5158182,4.10890909 25.7694545,4.04127273 C25.9216364,3.99054545 26.0907273,3.95672727 26.2429091,3.92290909 L26.3950909,3.63545455 C25.1945455,3.88909091 23.9263636,4.26109091 22.692,4.70072727 Z M3.29727273,16.6892727 C2.85763636,17.112 2.43490909,17.5347273 2.01218182,17.9912727 L2.33345455,17.9912727 C2.75618182,17.5516364 3.19581818,17.112 3.63545455,16.6892727 C3.65236364,16.6723636 3.66927273,16.6554545 3.68618182,16.6385455 C3.72,16.6047273 3.75381818,16.5709091 3.80454545,16.5370909 C3.83836364,16.5032727 3.87218182,16.4694545 3.906,16.4356364 C3.93981818,16.4018182 3.95672727,16.3849091 3.99054545,16.368 C4.02436364,16.3341818 4.04127273,16.3172727 4.07509091,16.2834545 C4.10890909,16.2496364 4.14272727,16.2158182 4.17654545,16.182 C4.26109091,16.0974545 4.34563636,16.0129091 4.44709091,15.9283636 C4.53163636,15.8438182 4.63309091,15.7592727 4.71763636,15.6916364 C4.90363636,15.5225455 5.07272727,15.3703636 5.25872727,15.2012727 C5.44472727,15.0490909 5.61381818,14.88 5.79981818,14.7278182 C5.98581818,14.5756364 6.15490909,14.4234545 6.34090909,14.2543636 C6.52690909,14.1021818 6.71290909,13.95 6.89890909,13.7978182 C7.08490909,13.6456364 7.28781818,13.4934545 7.47381818,13.3243636 C7.82890909,13.0369091 8.184,12.7663636 8.53909091,12.4958182 C8.77581818,12.3267273 8.99563636,12.1576364 9.23236364,11.9885455 C9.40145455,11.8701818 9.57054545,11.7518182 9.73963636,11.6334545 C9.87490909,11.532 9.99327273,11.4474545 10.1285455,11.346 C10.2469091,11.2614545 10.3821818,11.1769091 10.5005455,11.0923636 C10.6189091,11.0078182 10.7372727,10.9232727 10.8556364,10.8556364 C10.9909091,10.7710909 11.1261818,10.6696364 11.2614545,10.5850909 C11.2614545,10.5850909 11.2614545,10.5850909 11.2614545,10.5850909 C11.5150909,10.416 11.7856364,10.2469091 12.0392727,10.0778182 C12.0561818,10.0778182 12.0561818,10.0609091 12.0730909,10.0609091 C12.1407273,10.0270909 12.2083636,9.97636364 12.276,9.94254545 C12.276,9.94254545 12.2929091,9.92563636 12.2929091,9.92563636 C12.2929091,9.92563636 12.2929091,9.92563636 12.3098182,9.92563636 C12.3098182,9.92563636 12.3267273,9.92563636 12.3267273,9.90872727 C12.3605455,9.89181818 12.4112727,9.858 12.4450909,9.84109091 C12.5803636,9.75654545 12.7156364,9.672 12.834,9.60436364 C12.8847273,9.57054545 12.9354545,9.53672727 12.9861818,9.50290909 C13.1045455,9.43527273 13.2229091,9.36763636 13.3412727,9.3 C13.3412727,9.3 13.3581818,9.3 13.3581818,9.28309091 C13.4258182,9.24927273 13.4934545,9.19854545 13.5610909,9.16472727 C13.6118182,9.13090909 13.6625455,9.114 13.7132727,9.08018182 C13.7809091,9.04636364 13.8316364,9.01254545 13.8992727,8.97872727 C14.0514545,8.87727273 14.2205455,8.79272727 14.3727273,8.70818182 C14.6094545,8.57290909 14.8461818,8.43763636 15.0829091,8.31927273 C15.1843636,8.26854545 15.2689091,8.21781818 15.3703636,8.16709091 C15.4718182,8.11636364 15.5563636,8.06563636 15.6578182,8.01490909 C15.7592727,7.96418182 15.8607273,7.91345455 15.9621818,7.86272727 C16.0636364,7.812 16.1650909,7.76127273 16.2665455,7.71054545 C16.4694545,7.60909091 16.6723636,7.50763636 16.8752727,7.40618182 C17.0781818,7.30472727 17.2810909,7.20327273 17.484,7.10181818 C17.5178182,7.08490909 17.5685455,7.068 17.6023636,7.05109091 C17.6361818,7.03418182 17.6869091,7.01727273 17.7207273,7.00036364 C17.7207273,7.00036364 17.7207273,7.00036364 17.7207273,7.00036364 C17.7376364,7.00036364 17.7545455,6.98345455 17.7545455,6.98345455 C17.856,6.93272727 17.9743636,6.882 18.0758182,6.83127273 C18.2787273,6.72981818 18.4985455,6.64527273 18.7014545,6.54381818 C18.8874545,6.45927273 19.0903636,6.37472727 19.2763636,6.29018182 C19.4623636,6.20563636 19.6652727,6.12109091 19.8512727,6.05345455 C19.9189091,6.01963636 19.9865455,6.00272727 20.0710909,5.96890909 C20.2401818,5.90127273 20.4261818,5.83363636 20.5952727,5.766 C20.7981818,5.68145455 21.018,5.59690909 21.2209091,5.52927273 C21.3223636,5.49545455 21.4238182,5.44472727 21.5421818,5.41090909 C21.5929091,5.394 21.6436364,5.37709091 21.6943636,5.36018182 C21.7450909,5.34327273 21.7958182,5.32636364 21.8465455,5.30945455 C21.8465455,5.30945455 21.8634545,5.30945455 21.8634545,5.29254545 C21.8634545,5.29254545 21.8803636,5.29254545 21.8803636,5.27563636 C21.8972727,5.27563636 21.8972727,5.25872727 21.9141818,5.25872727 C21.9141818,5.25872727 21.9141818,5.25872727 21.9141818,5.25872727 L21.9141818,5.25872727 C21.948,5.24181818 21.9987273,5.22490909 22.0325455,5.22490909 C22.0325455,5.22490909 22.0494545,5.22490909 22.0494545,5.208 C22.0832727,5.19109091 22.1170909,5.17418182 22.1509091,5.17418182 C22.2523636,5.14036364 22.3538182,5.10654545 22.4552727,5.07272727 L22.6243636,4.76836364 C15.6916364,7.10181818 9.04636364,11.1092727 3.29727273,16.6892727 Z M3.29727273,16.6892727 C2.85763636,17.112 2.43490909,17.5347273 2.01218182,17.9912727 L2.33345455,17.9912727 C2.75618182,17.5516364 3.19581818,17.112 3.63545455,16.6892727 C3.65236364,16.6723636 3.66927273,16.6554545 3.68618182,16.6385455 C3.72,16.6047273 3.75381818,16.5709091 3.80454545,16.5370909 C3.83836364,16.5032727 3.87218182,16.4694545 3.906,16.4356364 C3.93981818,16.4018182 3.95672727,16.3849091 3.99054545,16.368 C4.02436364,16.3341818 4.04127273,16.3172727 4.07509091,16.2834545 C4.10890909,16.2496364 4.14272727,16.2158182 4.17654545,16.182 C4.26109091,16.0974545 4.34563636,16.0129091 4.44709091,15.9283636 C4.53163636,15.8438182 4.63309091,15.7592727 4.71763636,15.6916364 C4.90363636,15.5225455 5.07272727,15.3703636 5.25872727,15.2012727 C5.34327273,15.1167273 5.44472727,15.0321818 5.52927273,14.9645455 C5.61381818,14.88 5.71527273,14.8123636 5.79981818,14.7278182 C5.98581818,14.5756364 6.15490909,14.4234545 6.34090909,14.2543636 C6.52690909,14.1021818 6.71290909,13.95 6.89890909,13.7978182 C7.08490909,13.6456364 7.28781818,13.4934545 7.47381818,13.3243636 C7.82890909,13.0369091 8.184,12.7663636 8.53909091,12.4958182 C8.77581818,12.3267273 8.99563636,12.1576364 9.23236364,11.9885455 C9.40145455,11.8701818 9.57054545,11.7518182 9.73963636,11.6334545 C9.87490909,11.532 9.99327273,11.4474545 10.1285455,11.346 C10.2469091,11.2614545 10.3821818,11.1769091 10.5005455,11.0923636 C10.6189091,11.0078182 10.7372727,10.9232727 10.8556364,10.8556364 C10.9909091,10.7710909 11.1261818,10.6696364 11.2614545,10.5850909 C11.2614545,10.5850909 11.2614545,10.5850909 11.2614545,10.5850909 C11.5150909,10.416 11.7856364,10.2469091 12.0392727,10.0778182 C12.0561818,10.0778182 12.0561818,10.0609091 12.0730909,10.0609091 C12.1407273,10.0270909 12.2083636,9.97636364 12.276,9.94254545 C12.276,9.94254545 12.2929091,9.92563636 12.2929091,9.92563636 C12.2929091,9.92563636 12.2929091,9.92563636 12.3098182,9.92563636 C12.3098182,9.92563636 12.3267273,9.92563636 12.3267273,9.90872727 C12.3605455,9.89181818 12.4112727,9.858 12.4450909,9.84109091 C12.5803636,9.75654545 12.7156364,9.672 12.834,9.60436364 C12.8847273,9.57054545 12.9354545,9.53672727 12.9861818,9.50290909 C13.1045455,9.43527273 13.2229091,9.36763636 13.3412727,9.3 C13.3412727,9.3 13.3581818,9.3 13.3581818,9.28309091 C13.4258182,9.24927273 13.4934545,9.19854545 13.5610909,9.16472727 C13.6118182,9.13090909 13.6625455,9.114 13.7132727,9.08018182 C13.7809091,9.04636364 13.8316364,9.01254545 13.8992727,8.97872727 C14.0514545,8.87727273 14.2205455,8.79272727 14.3727273,8.70818182 C14.6094545,8.57290909 14.8461818,8.43763636 15.0829091,8.31927273 C15.1843636,8.26854545 15.2689091,8.21781818 15.3703636,8.16709091 C15.4718182,8.11636364 15.5563636,8.06563636 15.6578182,8.01490909 C15.7592727,7.96418182 15.8607273,7.91345455 15.9621818,7.86272727 C16.0636364,7.812 16.1650909,7.76127273 16.2665455,7.71054545 C16.4694545,7.60909091 16.6723636,7.50763636 16.8752727,7.40618182 C17.0781818,7.30472727 17.2810909,7.20327273 17.484,7.10181818 C17.5178182,7.08490909 17.5685455,7.068 17.6023636,7.05109091 C17.6361818,7.03418182 17.6869091,7.01727273 17.7207273,7.00036364 C17.7207273,7.00036364 17.7207273,7.00036364 17.7207273,7.00036364 C17.7376364,7.00036364 17.7545455,6.98345455 17.7545455,6.98345455 C17.856,6.93272727 17.9743636,6.882 18.0758182,6.83127273 C18.2787273,6.72981818 18.4985455,6.64527273 18.7014545,6.54381818 C18.8874545,6.45927273 19.0903636,6.37472727 19.2763636,6.29018182 C19.4623636,6.20563636 19.6652727,6.12109091 19.8512727,6.05345455 C19.9189091,6.01963636 19.9865455,6.00272727 20.0710909,5.96890909 C20.2401818,5.90127273 20.4261818,5.83363636 20.5952727,5.766 C20.7981818,5.68145455 21.018,5.59690909 21.2209091,5.52927273 C21.3223636,5.49545455 21.4238182,5.44472727 21.5421818,5.41090909 C21.5929091,5.394 21.6436364,5.37709091 21.6943636,5.36018182 C21.7450909,5.34327273 21.7958182,5.32636364 21.8465455,5.30945455 C21.8465455,5.30945455 21.8634545,5.30945455 21.8634545,5.29254545 C21.8634545,5.29254545 21.8803636,5.29254545 21.8803636,5.27563636 C21.8972727,5.27563636 21.8972727,5.25872727 21.9141818,5.25872727 C21.9141818,5.25872727 21.9141818,5.25872727 21.9141818,5.25872727 L21.9141818,5.25872727 C21.948,5.24181818 21.9987273,5.22490909 22.0325455,5.22490909 C22.0325455,5.22490909 22.0494545,5.22490909 22.0494545,5.208 C22.0832727,5.19109091 22.1170909,5.17418182 22.1509091,5.17418182 C22.2523636,5.14036364 22.3538182,5.10654545 22.4552727,5.07272727 L22.6243636,4.76836364 C15.6916364,7.10181818 9.04636364,11.1092727 3.29727273,16.6892727 Z M3.29727273,16.6892727 C2.85763636,17.112 2.43490909,17.5347273 2.01218182,17.9912727 L2.33345455,17.9912727 C2.75618182,17.5516364 3.19581818,17.112 3.63545455,16.6892727 C3.65236364,16.6723636 3.66927273,16.6554545 3.68618182,16.6385455 C3.72,16.6047273 3.75381818,16.5709091 3.80454545,16.5370909 C3.83836364,16.5032727 3.87218182,16.4694545 3.906,16.4356364 C3.93981818,16.4018182 3.95672727,16.3849091 3.99054545,16.368 C4.02436364,16.3341818 4.04127273,16.3172727 4.07509091,16.2834545 C4.10890909,16.2496364 4.14272727,16.2158182 4.17654545,16.182 C4.26109091,16.0974545 4.34563636,16.0129091 4.44709091,15.9283636 C4.53163636,15.8438182 4.63309091,15.7592727 4.71763636,15.6916364 C4.90363636,15.5225455 5.07272727,15.3703636 5.25872727,15.2012727 C5.34327273,15.1167273 5.44472727,15.0321818 5.52927273,14.9645455 C5.61381818,14.88 5.71527273,14.8123636 5.79981818,14.7278182 C5.98581818,14.5756364 6.15490909,14.4234545 6.34090909,14.2543636 C6.52690909,14.1021818 6.71290909,13.95 6.89890909,13.7978182 C7.08490909,13.6456364 7.28781818,13.4934545 7.47381818,13.3243636 C7.82890909,13.0369091 8.184,12.7663636 8.53909091,12.4958182 C8.77581818,12.3267273 8.99563636,12.1576364 9.23236364,11.9885455 C9.40145455,11.8701818 9.57054545,11.7518182 9.73963636,11.6334545 C9.87490909,11.532 9.99327273,11.4474545 10.1285455,11.346 C10.2469091,11.2614545 10.3821818,11.1769091 10.5005455,11.0923636 C10.6189091,11.0078182 10.7372727,10.9232727 10.8556364,10.8556364 C10.9909091,10.7710909 11.1261818,10.6696364 11.2614545,10.5850909 C11.2614545,10.5850909 11.2614545,10.5850909 11.2614545,10.5850909 C11.5150909,10.416 11.7856364,10.2469091 12.0392727,10.0778182 C12.0561818,10.0778182 12.0561818,10.0609091 12.0730909,10.0609091 C12.1407273,10.0270909 12.2083636,9.97636364 12.276,9.94254545 C12.276,9.94254545 12.2929091,9.92563636 12.2929091,9.92563636 C12.2929091,9.92563636 12.2929091,9.92563636 12.3098182,9.92563636 C12.3098182,9.92563636 12.3267273,9.92563636 12.3267273,9.90872727 C12.3605455,9.89181818 12.4112727,9.858 12.4450909,9.84109091 C12.5803636,9.75654545 12.7156364,9.672 12.834,9.60436364 C12.8847273,9.57054545 12.9354545,9.53672727 12.9861818,9.50290909 C13.1045455,9.43527273 13.2229091,9.36763636 13.3412727,9.3 C13.3412727,9.3 13.3581818,9.3 13.3581818,9.28309091 C13.4258182,9.24927273 13.4934545,9.19854545 13.5610909,9.16472727 C13.6118182,9.13090909 13.6625455,9.114 13.7132727,9.08018182 C13.7809091,9.04636364 13.8316364,9.01254545 13.8992727,8.97872727 C14.0514545,8.87727273 14.2205455,8.79272727 14.3727273,8.70818182 C14.6094545,8.57290909 14.8461818,8.43763636 15.0829091,8.31927273 C15.1843636,8.26854545 15.2689091,8.21781818 15.3703636,8.16709091 C15.4718182,8.11636364 15.5563636,8.06563636 15.6578182,8.01490909 C15.7592727,7.96418182 15.8607273,7.91345455 15.9621818,7.86272727 C16.0636364,7.812 16.1650909,7.76127273 16.2665455,7.71054545 C16.4694545,7.60909091 16.6723636,7.50763636 16.8752727,7.40618182 C17.0781818,7.30472727 17.2810909,7.20327273 17.484,7.10181818 C17.5178182,7.08490909 17.5685455,7.068 17.6023636,7.05109091 C17.6361818,7.03418182 17.6869091,7.01727273 17.7207273,7.00036364 C17.7207273,7.00036364 17.7207273,7.00036364 17.7207273,7.00036364 C17.7376364,7.00036364 17.7545455,6.98345455 17.7545455,6.98345455 C17.856,6.93272727 17.9743636,6.882 18.0758182,6.83127273 C18.2787273,6.72981818 18.4985455,6.64527273 18.7014545,6.54381818 C18.8874545,6.45927273 19.0903636,6.37472727 19.2763636,6.29018182 C19.4623636,6.20563636 19.6652727,6.12109091 19.8512727,6.05345455 C19.9189091,6.01963636 19.9865455,6.00272727 20.0710909,5.96890909 C20.2401818,5.90127273 20.4261818,5.83363636 20.5952727,5.766 C20.7981818,5.68145455 21.018,5.59690909 21.2209091,5.52927273 C21.3223636,5.49545455 21.4238182,5.44472727 21.5421818,5.41090909 C21.5929091,5.394 21.6436364,5.37709091 21.6943636,5.36018182 C21.7450909,5.34327273 21.7958182,5.32636364 21.8465455,5.30945455 C21.8465455,5.30945455 21.8634545,5.30945455 21.8634545,5.29254545 C21.8634545,5.29254545 21.8803636,5.29254545 21.8803636,5.27563636 C21.8972727,5.27563636 21.8972727,5.25872727 21.9141818,5.25872727 C21.9141818,5.25872727 21.9141818,5.25872727 21.9141818,5.25872727 L21.9141818,5.25872727 C21.948,5.24181818 21.9987273,5.22490909 22.0325455,5.22490909 C22.0325455,5.22490909 22.0494545,5.22490909 22.0494545,5.208 C22.0832727,5.19109091 22.1170909,5.17418182 22.1509091,5.17418182 C22.2523636,5.14036364 22.3538182,5.10654545 22.4552727,5.07272727 L22.6243636,4.76836364 C15.6916364,7.10181818 9.04636364,11.1092727 3.29727273,16.6892727 Z M76.1585455,16.6892727 C76.1416364,16.4187273 76.0232727,16.1650909 75.8372727,15.9790909 C69.1581818,8.96181818 60.9572727,4.092 51.9616364,1.72472727 C50.778,1.42036364 49.5943636,1.14981818 48.3769091,0.913090909 C45.3163636,0.338181818 42.1712727,0.0507272727 38.9923636,0.0507272727 C38.7725455,0.0507272727 38.5527273,0.0507272727 38.3329091,0.0507272727 C34.7312727,0.101454545 31.1803636,0.524181818 27.714,1.28509091 C26.4796364,1.55563636 25.2621818,1.87690909 24.0447273,2.24890909 C15.3365455,4.86981818 7.32163636,9.79036364 0.676363636,16.6892727 C0.591818182,16.7738182 0.524181818,16.8414545 0.456545455,16.926 C0.236727273,17.1458182 0.118363636,17.4501818 0.118363636,17.7714545 C0.118363636,17.8390909 0.118363636,17.9236364 0.135272727,17.9912727 C0.169090909,18.228 0.287454545,18.4478182 0.439636364,18.6169091 C0.659454545,18.8367273 0.93,18.972 1.23436364,18.972 C1.53872727,18.972 1.82618182,18.8536364 2.02909091,18.6169091 C2.232,18.3970909 2.43490909,18.1941818 2.63781818,17.9912727 C3.07745455,17.5516364 3.50018182,17.112 3.95672727,16.6892727 C9.43527273,11.4643636 15.7254545,7.65981818 22.3369091,5.30945455 C23.5881818,4.86981818 24.8563636,4.464 26.1245455,4.12581818 C33.9365455,2.02909091 42.0867273,1.87690909 49.8649091,3.66927273 C51.0992727,3.95672727 52.3336364,4.29490909 53.5510909,4.68381818 C60.7374545,6.94963636 67.5010909,10.9570909 73.2501818,16.6892727 C73.5714545,17.0105455 73.8927273,17.3318182 74.1970909,17.6530909 C74.3661818,17.8390909 74.6029091,17.9405455 74.8565455,17.9743636 C74.958,17.9912727 75.0594545,17.9912727 75.1609091,17.9743636 C75.3976364,17.9405455 75.6343636,17.8390909 75.8034545,17.6530909 C76.0232727,17.4332727 76.1416364,17.1289091 76.1416364,16.8076364 C76.1585455,16.7738182 76.1585455,16.74 76.1585455,16.6892727 Z M74.5521818,17.3318182 C74.3492727,17.112 74.1463636,16.9090909 73.9434545,16.7061818 C67.9407273,10.602 60.822,6.40854545 53.2467273,4.092 C52.0292727,3.72 50.8118182,3.39872727 49.5774545,3.12818182 C41.9852727,1.45418182 34.0718182,1.58945455 26.4458182,3.56781818 C25.1776364,3.88909091 23.9263636,4.278 22.6750909,4.70072727 C15.6747273,7.11872727 9.02945455,11.1092727 3.28036364,16.7061818 C2.84072727,17.1289091 2.418,17.5516364 1.99527273,18.0081818 C1.89381818,18.1096364 1.80927273,18.1941818 1.72472727,18.2956364 C1.47109091,18.5661818 1.01454545,18.5661818 0.760909091,18.2956364 C0.676363636,18.2110909 0.625636364,18.1096364 0.591818182,18.0081818 C0.524181818,17.7714545 0.574909091,17.484 0.760909091,17.2810909 C0.946909091,17.0950909 1.13290909,16.8921818 1.31890909,16.7061818 C7.71054545,10.1623636 15.3872727,5.44472727 23.7065455,2.85763636 C24.924,2.48563636 26.1583636,2.14745455 27.3927273,1.86 C30.9605455,1.03145455 34.6129091,0.591818182 38.3329091,0.541090909 C38.5527273,0.541090909 38.7725455,0.541090909 38.9923636,0.541090909 C42.2896364,0.541090909 45.5192727,0.862363636 48.6812727,1.47109091 C49.8987273,1.70781818 51.0992727,1.99527273 52.2829091,2.31654545 C61.0249091,4.70072727 69.006,9.486 75.516,16.3341818 C75.6174545,16.4356364 75.6850909,16.5709091 75.702,16.7061818 C75.7358182,16.926 75.6850909,17.1627273 75.516,17.3318182 C75.2454545,17.6023636 74.8058182,17.6023636 74.5521818,17.3318182 Z M3.29727273,16.6892727 C2.85763636,17.112 2.43490909,17.5347273 2.01218182,17.9912727 L2.33345455,17.9912727 C2.75618182,17.5516364 3.19581818,17.112 3.63545455,16.6892727 C3.65236364,16.6723636 3.66927273,16.6554545 3.68618182,16.6385455 C3.72,16.6047273 3.75381818,16.5709091 3.80454545,16.5370909 C3.83836364,16.5032727 3.87218182,16.4694545 3.906,16.4356364 C3.93981818,16.4018182 3.95672727,16.3849091 3.99054545,16.368 C4.02436364,16.3341818 4.04127273,16.3172727 4.07509091,16.2834545 C4.10890909,16.2496364 4.14272727,16.2158182 4.17654545,16.182 C4.26109091,16.0974545 4.34563636,16.0129091 4.44709091,15.9283636 C4.53163636,15.8438182 4.63309091,15.7592727 4.71763636,15.6916364 C4.90363636,15.5225455 5.07272727,15.3703636 5.25872727,15.2012727 C5.34327273,15.1167273 5.44472727,15.0321818 5.52927273,14.9645455 C5.61381818,14.88 5.71527273,14.8123636 5.79981818,14.7278182 C5.98581818,14.5756364 6.15490909,14.4234545 6.34090909,14.2543636 C6.52690909,14.1021818 6.71290909,13.95 6.89890909,13.7978182 C7.08490909,13.6456364 7.28781818,13.4934545 7.47381818,13.3243636 C7.82890909,13.0369091 8.184,12.7663636 8.53909091,12.4958182 C8.77581818,12.3267273 8.99563636,12.1576364 9.23236364,11.9885455 C9.40145455,11.8701818 9.57054545,11.7518182 9.73963636,11.6334545 C9.87490909,11.532 9.99327273,11.4474545 10.1285455,11.346 C10.2469091,11.2614545 10.3821818,11.1769091 10.5005455,11.0923636 C10.6189091,11.0078182 10.7372727,10.9232727 10.8556364,10.8556364 C10.9909091,10.7710909 11.1261818,10.6696364 11.2614545,10.5850909 C11.2614545,10.5850909 11.2614545,10.5850909 11.2614545,10.5850909 C11.5150909,10.416 11.7856364,10.2469091 12.0392727,10.0778182 C12.0561818,10.0778182 12.0561818,10.0609091 12.0730909,10.0609091 C12.1407273,10.0270909 12.2083636,9.97636364 12.276,9.94254545 C12.276,9.94254545 12.2929091,9.92563636 12.2929091,9.92563636 C12.2929091,9.92563636 12.2929091,9.92563636 12.3098182,9.92563636 C12.3098182,9.92563636 12.3267273,9.92563636 12.3267273,9.90872727 C12.3605455,9.89181818 12.4112727,9.858 12.4450909,9.84109091 C12.5803636,9.75654545 12.7156364,9.672 12.834,9.60436364 C12.8847273,9.57054545 12.9354545,9.53672727 12.9861818,9.50290909 C13.1045455,9.43527273 13.2229091,9.36763636 13.3412727,9.3 C13.3412727,9.3 13.3581818,9.3 13.3581818,9.28309091 C13.4258182,9.24927273 13.4934545,9.19854545 13.5610909,9.16472727 C13.6118182,9.13090909 13.6625455,9.114 13.7132727,9.08018182 C13.7809091,9.04636364 13.8316364,9.01254545 13.8992727,8.97872727 C14.0514545,8.87727273 14.2205455,8.79272727 14.3727273,8.70818182 C14.6094545,8.57290909 14.8461818,8.43763636 15.0829091,8.31927273 C15.1843636,8.26854545 15.2689091,8.21781818 15.3703636,8.16709091 C15.4718182,8.11636364 15.5563636,8.06563636 15.6578182,8.01490909 C15.7592727,7.96418182 15.8607273,7.91345455 15.9621818,7.86272727 C16.0636364,7.812 16.1650909,7.76127273 16.2665455,7.71054545 C16.4694545,7.60909091 16.6723636,7.50763636 16.8752727,7.40618182 C17.0781818,7.30472727 17.2810909,7.20327273 17.484,7.10181818 C17.5178182,7.08490909 17.5685455,7.068 17.6023636,7.05109091 C17.6361818,7.03418182 17.6869091,7.01727273 17.7207273,7.00036364 C17.7207273,7.00036364 17.7207273,7.00036364 17.7207273,7.00036364 C17.7376364,7.00036364 17.7545455,6.98345455 17.7545455,6.98345455 C17.856,6.93272727 17.9743636,6.882 18.0758182,6.83127273 C18.2787273,6.72981818 18.4985455,6.64527273 18.7014545,6.54381818 C18.8874545,6.45927273 19.0903636,6.37472727 19.2763636,6.29018182 C19.4623636,6.20563636 19.6652727,6.12109091 19.8512727,6.05345455 C19.9189091,6.01963636 19.9865455,6.00272727 20.0710909,5.96890909 C20.2401818,5.90127273 20.4261818,5.83363636 20.5952727,5.766 C20.7981818,5.68145455 21.018,5.59690909 21.2209091,5.52927273 C21.3223636,5.49545455 21.4238182,5.44472727 21.5421818,5.41090909 C21.5929091,5.394 21.6436364,5.37709091 21.6943636,5.36018182 C21.7450909,5.34327273 21.7958182,5.32636364 21.8465455,5.30945455 C21.8465455,5.30945455 21.8634545,5.30945455 21.8634545,5.29254545 C21.8634545,5.29254545 21.8803636,5.29254545 21.8803636,5.27563636 C21.8972727,5.27563636 21.8972727,5.25872727 21.9141818,5.25872727 C21.9141818,5.25872727 21.9141818,5.25872727 21.9141818,5.25872727 L21.9141818,5.25872727 C21.948,5.24181818 21.9987273,5.22490909 22.0325455,5.22490909 C22.0325455,5.22490909 22.0494545,5.22490909 22.0494545,5.208 C22.0832727,5.19109091 22.1170909,5.17418182 22.1509091,5.17418182 C22.2523636,5.14036364 22.3538182,5.10654545 22.4552727,5.07272727 L22.6243636,4.76836364 C15.6916364,7.10181818 9.04636364,11.1092727 3.29727273,16.6892727 Z M3.29727273,16.6892727 C2.85763636,17.112 2.43490909,17.5347273 2.01218182,17.9912727 L2.33345455,17.9912727 C2.75618182,17.5516364 3.19581818,17.112 3.63545455,16.6892727 C3.65236364,16.6723636 3.66927273,16.6554545 3.68618182,16.6385455 C3.72,16.6047273 3.75381818,16.5709091 3.80454545,16.5370909 C3.83836364,16.5032727 3.87218182,16.4694545 3.906,16.4356364 C3.93981818,16.4018182 3.95672727,16.3849091 3.99054545,16.368 C4.02436364,16.3341818 4.04127273,16.3172727 4.07509091,16.2834545 C4.10890909,16.2496364 4.14272727,16.2158182 4.17654545,16.182 C4.26109091,16.0974545 4.34563636,16.0129091 4.44709091,15.9283636 C4.53163636,15.8438182 4.63309091,15.7592727 4.71763636,15.6916364 C4.90363636,15.5225455 5.07272727,15.3703636 5.25872727,15.2012727 C5.34327273,15.1167273 5.44472727,15.0321818 5.52927273,14.9645455 C5.61381818,14.88 5.71527273,14.8123636 5.79981818,14.7278182 C5.98581818,14.5756364 6.15490909,14.4234545 6.34090909,14.2543636 C6.52690909,14.1021818 6.71290909,13.95 6.89890909,13.7978182 C7.08490909,13.6456364 7.28781818,13.4934545 7.47381818,13.3243636 C7.82890909,13.0369091 8.184,12.7663636 8.53909091,12.4958182 C8.77581818,12.3267273 8.99563636,12.1576364 9.23236364,11.9885455 C9.40145455,11.8701818 9.57054545,11.7518182 9.73963636,11.6334545 C9.87490909,11.532 9.99327273,11.4474545 10.1285455,11.346 C10.2469091,11.2614545 10.3821818,11.1769091 10.5005455,11.0923636 C10.6189091,11.0078182 10.7372727,10.9232727 10.8556364,10.8556364 C10.9909091,10.7710909 11.1261818,10.6696364 11.2614545,10.5850909 C11.2614545,10.5850909 11.2614545,10.5850909 11.2614545,10.5850909 C11.5150909,10.416 11.7856364,10.2469091 12.0392727,10.0778182 C12.0561818,10.0778182 12.0561818,10.0609091 12.0730909,10.0609091 C12.1407273,10.0270909 12.2083636,9.97636364 12.276,9.94254545 C12.276,9.94254545 12.2929091,9.92563636 12.2929091,9.92563636 C12.2929091,9.92563636 12.2929091,9.92563636 12.3098182,9.92563636 C12.3098182,9.92563636 12.3267273,9.92563636 12.3267273,9.90872727 C12.3605455,9.89181818 12.4112727,9.858 12.4450909,9.84109091 C12.5803636,9.75654545 12.7156364,9.672 12.834,9.60436364 C12.8847273,9.57054545 12.9354545,9.53672727 12.9861818,9.50290909 C13.1045455,9.43527273 13.2229091,9.36763636 13.3412727,9.3 C13.3412727,9.3 13.3581818,9.3 13.3581818,9.28309091 C13.4258182,9.24927273 13.4934545,9.19854545 13.5610909,9.16472727 C13.6118182,9.13090909 13.6625455,9.114 13.7132727,9.08018182 C13.7809091,9.04636364 13.8316364,9.01254545 13.8992727,8.97872727 C14.0514545,8.87727273 14.2205455,8.79272727 14.3727273,8.70818182 C14.6094545,8.57290909 14.8461818,8.43763636 15.0829091,8.31927273 C15.1843636,8.26854545 15.2689091,8.21781818 15.3703636,8.16709091 C15.4718182,8.11636364 15.5563636,8.06563636 15.6578182,8.01490909 C15.7592727,7.96418182 15.8607273,7.91345455 15.9621818,7.86272727 C16.0636364,7.812 16.1650909,7.76127273 16.2665455,7.71054545 C16.4694545,7.60909091 16.6723636,7.50763636 16.8752727,7.40618182 C17.0781818,7.30472727 17.2810909,7.20327273 17.484,7.10181818 C17.5178182,7.08490909 17.5685455,7.068 17.6023636,7.05109091 C17.6361818,7.03418182 17.6869091,7.01727273 17.7207273,7.00036364 C17.7207273,7.00036364 17.7207273,7.00036364 17.7207273,7.00036364 C17.7376364,7.00036364 17.7545455,6.98345455 17.7545455,6.98345455 C17.856,6.93272727 17.9743636,6.882 18.0758182,6.83127273 C18.2787273,6.72981818 18.4985455,6.64527273 18.7014545,6.54381818 C18.8874545,6.45927273 19.0903636,6.37472727 19.2763636,6.29018182 C19.4623636,6.20563636 19.6652727,6.12109091 19.8512727,6.05345455 C19.9189091,6.01963636 19.9865455,6.00272727 20.0710909,5.96890909 C20.2401818,5.90127273 20.4261818,5.83363636 20.5952727,5.766 C20.7981818,5.68145455 21.018,5.59690909 21.2209091,5.52927273 C21.3223636,5.49545455 21.4238182,5.44472727 21.5421818,5.41090909 C21.5929091,5.394 21.6436364,5.37709091 21.6943636,5.36018182 C21.7450909,5.34327273 21.7958182,5.32636364 21.8465455,5.30945455 C21.8465455,5.30945455 21.8634545,5.30945455 21.8634545,5.29254545 C21.8634545,5.29254545 21.8803636,5.29254545 21.8803636,5.27563636 C21.8972727,5.27563636 21.8972727,5.25872727 21.9141818,5.25872727 C21.9141818,5.25872727 21.9141818,5.25872727 21.9141818,5.25872727 L21.9141818,5.25872727 C21.948,5.24181818 21.9987273,5.22490909 22.0325455,5.22490909 C22.0325455,5.22490909 22.0494545,5.22490909 22.0494545,5.208 C22.0832727,5.19109091 22.1170909,5.17418182 22.1509091,5.17418182 C22.2523636,5.14036364 22.3538182,5.10654545 22.4552727,5.07272727 L22.6243636,4.76836364 C15.6916364,7.10181818 9.04636364,11.1092727 3.29727273,16.6892727 Z M22.692,4.70072727 C15.6916364,7.11872727 9.04636364,11.1092727 3.29727273,16.7061818 C2.85763636,17.1289091 2.43490909,17.5516364 2.01218182,18.0081818 L2.33345455,18.0081818 C2.75618182,17.5685455 3.19581818,17.1289091 3.63545455,16.7061818 C3.65236364,16.6892727 3.66927273,16.6723636 3.68618182,16.6554545 C3.72,16.6216364 3.75381818,16.5878182 3.80454545,16.554 C3.87218182,16.5032727 3.92290909,16.4356364 3.99054545,16.3849091 C4.02436364,16.3510909 4.04127273,16.3341818 4.07509091,16.3003636 C4.10890909,16.2665455 4.14272727,16.2327273 4.17654545,16.1989091 C4.34563636,16.0298182 4.53163636,15.8607273 4.71763636,15.7085455 C4.90363636,15.5394545 5.07272727,15.3872727 5.25872727,15.2181818 C5.44472727,15.066 5.61381818,14.8969091 5.79981818,14.7447273 C5.98581818,14.5925455 6.15490909,14.4403636 6.34090909,14.2712727 C6.52690909,14.1190909 6.71290909,13.9669091 6.89890909,13.8147273 C7.08490909,13.6625455 7.28781818,13.5103636 7.47381818,13.3412727 C7.82890909,13.0538182 8.184,12.7832727 8.53909091,12.5127273 C8.77581818,12.3436364 8.99563636,12.1745455 9.23236364,12.0054545 C9.40145455,11.8870909 9.57054545,11.7687273 9.73963636,11.6503636 C9.87490909,11.5489091 9.99327273,11.4643636 10.1285455,11.3629091 C10.2469091,11.2783636 10.3821818,11.1938182 10.5005455,11.1092727 C10.6189091,11.0247273 10.7372727,10.9401818 10.8556364,10.8725455 C10.9909091,10.788 11.1261818,10.6865455 11.2614545,10.602 C11.2614545,10.602 11.2614545,10.602 11.2614545,10.602 C11.5150909,10.4329091 11.7856364,10.2638182 12.0392727,10.0947273 C12.0561818,10.0947273 12.0561818,10.0778182 12.0730909,10.0778182 C12.1407273,10.044 12.2083636,9.99327273 12.276,9.95945455 C12.276,9.95945455 12.2929091,9.94254545 12.2929091,9.94254545 C12.2929091,9.94254545 12.2929091,9.94254545 12.3098182,9.94254545 C12.3098182,9.94254545 12.3267273,9.94254545 12.3267273,9.92563636 C12.3605455,9.90872727 12.4112727,9.87490909 12.4450909,9.858 C12.5803636,9.77345455 12.7156364,9.68890909 12.834,9.62127273 C12.8847273,9.58745455 12.9354545,9.55363636 12.9861818,9.51981818 C13.1045455,9.45218182 13.2229091,9.38454545 13.3412727,9.31690909 C13.3412727,9.31690909 13.3581818,9.31690909 13.3581818,9.3 C13.4258182,9.26618182 13.4934545,9.21545455 13.5610909,9.18163636 C13.6118182,9.14781818 13.6625455,9.13090909 13.7132727,9.09709091 C13.7809091,9.06327273 13.8316364,9.02945455 13.8992727,8.99563636 C14.0514545,8.89418182 14.2205455,8.80963636 14.3727273,8.72509091 C14.6094545,8.58981818 14.8461818,8.45454545 15.0829091,8.33618182 C15.1843636,8.28545455 15.2689091,8.23472727 15.3703636,8.184 C15.4718182,8.13327273 15.5563636,8.08254545 15.6578182,8.03181818 C15.7592727,7.98109091 15.8607273,7.93036364 15.9621818,7.87963636 C16.0636364,7.82890909 16.1650909,7.77818182 16.2665455,7.72745455 C16.4694545,7.626 16.6723636,7.52454545 16.8752727,7.42309091 C17.0781818,7.32163636 17.2810909,7.22018182 17.484,7.11872727 C17.5178182,7.10181818 17.5685455,7.08490909 17.6023636,7.068 C17.6361818,7.05109091 17.6869091,7.03418182 17.7207273,7.01727273 C17.7207273,7.01727273 17.7207273,7.01727273 17.7207273,7.01727273 C17.7376364,7.01727273 17.7545455,7.00036364 17.7545455,7.00036364 C17.856,6.94963636 17.9743636,6.89890909 18.0758182,6.84818182 C18.2787273,6.74672727 18.4985455,6.66218182 18.7014545,6.56072727 C18.8874545,6.47618182 19.0903636,6.39163636 19.2763636,6.30709091 C19.4623636,6.22254545 19.6652727,6.138 19.8512727,6.07036364 C19.9189091,6.03654545 19.9865455,6.01963636 20.0710909,5.98581818 C20.2401818,5.91818182 20.4261818,5.85054545 20.5952727,5.78290909 C20.7981818,5.69836364 21.018,5.61381818 21.2209091,5.54618182 C21.3223636,5.51236364 21.4238182,5.46163636 21.5421818,5.42781818 C21.5929091,5.41090909 21.6436364,5.394 21.6943636,5.37709091 C21.7450909,5.36018182 21.7958182,5.34327273 21.8465455,5.32636364 C21.8465455,5.32636364 21.8634545,5.32636364 21.8634545,5.30945455 C21.8634545,5.30945455 21.8803636,5.30945455 21.8803636,5.29254545 C21.8972727,5.29254545 21.8972727,5.27563636 21.9141818,5.27563636 C21.9141818,5.27563636 21.9141818,5.27563636 21.9141818,5.27563636 L21.9141818,5.27563636 C21.948,5.25872727 21.9987273,5.24181818 22.0325455,5.24181818 C22.0325455,5.24181818 22.0494545,5.24181818 22.0494545,5.22490909 C22.0832727,5.208 22.1170909,5.19109091 22.1509091,5.19109091 C22.2523636,5.15727273 22.3538182,5.12345455 22.4552727,5.08963636 C22.6074545,5.03890909 22.7596364,4.98818182 22.9287273,4.92054545 C23.1654545,4.836 23.4021818,4.76836364 23.622,4.68381818 C23.622,4.68381818 23.6389091,4.68381818 23.6389091,4.68381818 C23.7572727,4.65 23.8756364,4.59927273 24.0109091,4.56545455 C24.18,4.51472727 24.3321818,4.464 24.5012727,4.41327273 C24.6534545,4.36254545 24.8225455,4.31181818 24.9916364,4.26109091 C25.2452727,4.17654545 25.5158182,4.10890909 25.7694545,4.04127273 C25.9216364,3.99054545 26.0907273,3.95672727 26.2429091,3.92290909 L26.3950909,3.63545455 C25.1945455,3.88909091 23.9263636,4.26109091 22.692,4.70072727 Z M22.692,4.70072727 C15.6916364,7.11872727 9.04636364,11.1092727 3.29727273,16.7061818 C2.85763636,17.1289091 2.43490909,17.5516364 2.01218182,18.0081818 L2.33345455,18.0081818 C2.75618182,17.5685455 3.19581818,17.1289091 3.63545455,16.7061818 L3.97363636,16.7061818 C9.45218182,11.4812727 15.7423636,7.67672727 22.3538182,5.32636364 L22.5229091,5.022 C22.6750909,4.97127273 22.8272727,4.92054545 22.9963636,4.85290909 C23.2330909,4.76836364 23.4698182,4.70072727 23.6896364,4.61618182 C23.6896364,4.61618182 23.7065455,4.61618182 23.7065455,4.61618182 C23.8249091,4.58236364 23.9432727,4.53163636 24.0785455,4.49781818 C24.2476364,4.44709091 24.3998182,4.39636364 24.5689091,4.34563636 C24.7210909,4.29490909 24.8901818,4.24418182 25.0592727,4.19345455 C25.3129091,4.10890909 25.5834545,4.04127273 25.8370909,3.97363636 C25.9892727,3.92290909 26.1583636,3.88909091 26.3105455,3.85527273 L26.4627273,3.56781818 C25.1945455,3.88909091 23.9263636,4.26109091 22.692,4.70072727 Z M22.692,4.70072727 C15.6916364,7.11872727 9.04636364,11.1092727 3.29727273,16.7061818 C2.85763636,17.1289091 2.43490909,17.5516364 2.01218182,18.0081818 L2.33345455,18.0081818 C2.75618182,17.5685455 3.19581818,17.1289091 3.63545455,16.7061818 L3.97363636,16.7061818 C9.45218182,11.4812727 15.7423636,7.67672727 22.3538182,5.32636364 L22.5229091,5.022 C22.6750909,4.97127273 22.8272727,4.92054545 22.9963636,4.85290909 C23.2330909,4.76836364 23.4698182,4.70072727 23.6896364,4.61618182 C23.6896364,4.61618182 23.7065455,4.61618182 23.7065455,4.61618182 C23.8249091,4.58236364 23.9432727,4.53163636 24.0785455,4.49781818 C24.2476364,4.44709091 24.3998182,4.39636364 24.5689091,4.34563636 C24.7210909,4.29490909 24.8901818,4.24418182 25.0592727,4.19345455 C25.3129091,4.10890909 25.5834545,4.04127273 25.8370909,3.97363636 C25.9892727,3.92290909 26.1583636,3.88909091 26.3105455,3.85527273 L26.4627273,3.56781818 C25.1945455,3.88909091 23.9263636,4.26109091 22.692,4.70072727 Z" id="Shape"></path>
                </g>
                <g id="Group" transform="translate(4.241818, 77.443636)" fill="#00BCE8">
                    <rect id="Rectangle" x="0.287454545" y="0.388909091" width="105.106909" height="1.91072727"></rect>
                    <path d="M0.0676363636,0.152181818 L0.0676363636,2.53636364 L105.631091,2.53636364 L105.631091,0.152181818 L0.0676363636,0.152181818 Z M105.174545,2.06290909 L0.507272727,2.06290909 L0.507272727,0.625636364 L105.174545,0.625636364 L105.174545,2.06290909 Z" id="Shape"></path>
                </g>
                <g id="ARCSim">
                    <use fill="#000000" xlink:href="#path-1"></use>
                    <use fill="#0D0248" xlink:href="#path-1"></use>
                </g>
            </g>
        </g>
    </g>
</svg>
