<?xml version="1.0" encoding="UTF-8"?>
<svg width="212px" height="174px" viewBox="0 0 212 174" version="1.1" xmlns="http://www.w3.org/2000/svg" xmlns:xlink="http://www.w3.org/1999/xlink">
    <title>Symbols</title>
    <g id="Symbols" stroke="none" stroke-width="1" fill="none" fill-rule="evenodd">
        <g id="Dashboard/Illustrations/Reporting" transform="translate(0.000000, 0.000000)" fill-rule="nonzero">
            <path d="M88.9514348,158 L2.04856522,158 C0.917717686,157.99869 0.00131175977,157.083676 0,155.954545 L0,52.0454545 C0.00131175977,50.9163242 0.917717686,50.0013098 2.04856522,50 L88.9514348,50 C90.0822898,50.0012918 90.9987063,50.9163167 91,52.0454545 L91,155.954545 C90.9987063,157.083683 90.0822898,157.998708 88.9514348,158 L88.9514348,158 Z M2.04856522,50.8181818 C1.37004492,50.8181818 0.819426089,51.3679646 0.819426089,52.0454545 L0.819426089,155.954545 C0.819426089,156.632035 1.37004492,157.181818 2.04856522,157.181818 L88.9514348,157.181818 C89.6299626,157.181818 90.1805739,156.632043 90.1805739,155.954545 L90.1805739,52.0454545 C90.1805739,51.3679571 89.6299626,50.8181818 88.9514348,50.8181818 L2.04856522,50.8181818 Z" id="Shape" fill="#CACACA"></path>
            <rect id="Rectangle" fill="#3F51B5" x="14" y="72" width="64" height="39"></rect>
            <rect id="Rectangle" fill="#E4E4E4" x="14" y="126" width="16" height="10"></rect>
            <rect id="Rectangle" fill="#E4E4E4" x="61" y="126" width="16" height="10"></rect>
            <rect id="Rectangle" fill="#E4E4E4" x="38" y="126" width="16" height="10"></rect>
            <path d="M208.951435,108 L122.048565,108 C120.91771,107.998708 120.001294,107.083683 120,105.954545 L120,2.04545455 C120.001294,0.916316696 120.91771,0.00129177269 122.048565,0 L208.951435,0 C210.08229,0.00129177269 210.998706,0.916316696 211,2.04545455 L211,105.954545 C210.998706,107.083683 210.08229,107.998708 208.951435,108 L208.951435,108 Z M122.048565,0.818181818 C121.370037,0.818181818 120.819426,1.36795709 120.819426,2.04545455 L120.819426,105.954545 C120.819426,106.632043 121.370037,107.181818 122.048565,107.181818 L208.951435,107.181818 C209.629963,107.181818 210.180574,106.632043 210.180574,105.954545 L210.180574,2.04545455 C210.180574,1.36795709 209.629963,0.818181818 208.951435,0.818181818 L122.048565,0.818181818 Z" id="Shape" fill="#CACACA"></path>
            <path d="M209.951433,174 L123.048567,174 C121.917711,173.9987 121.001294,173.077694 121,171.941176 L121,141.058824 C121.001294,139.922306 121.917711,139.0013 123.048567,139 L209.951433,139 C211.082289,139.0013 211.998706,139.922306 212,141.058824 L212,171.941176 C211.998706,173.077694 211.082289,173.9987 209.951433,174 L209.951433,174 Z M123.048567,139.823529 C122.370039,139.824274 121.819427,140.376898 121.819427,141.058824 L121.819427,171.941176 C121.819427,172.623102 122.370039,173.175726 123.048567,173.176471 L209.951433,173.176471 C210.629961,173.175726 211.180573,172.623102 211.180573,171.941176 L211.180573,141.058824 C211.180573,140.376898 210.629961,139.824274 209.951433,139.823529 L123.048567,139.823529 Z" id="Shape" fill="#CACACA"></path>
            <rect id="Rectangle" fill="#E4E4E4" x="134" y="70" width="63" height="10" rx="5"></rect>
            <rect id="Rectangle" fill="#E4E4E4" x="134" y="85" width="63" height="10" rx="5"></rect>
            <circle id="Oval" fill="#3F51B5" cx="165" cy="36" r="23"></circle>
            <rect id="Rectangle" fill="#E4E4E4" x="163" y="152" width="33" height="10" rx="5"></rect>
            <circle id="Oval" fill="#3F51B5" cx="146" cy="157" r="9"></circle>
        </g>
    </g>
</svg>
