<?xml version="1.0" encoding="UTF-8"?>
<svg width="211px" height="189px" viewBox="0 0 211 189" version="1.1" xmlns="http://www.w3.org/2000/svg" xmlns:xlink="http://www.w3.org/1999/xlink">
    <title>Symbols</title>
    <g id="Symbols" stroke="none" stroke-width="1" fill="none" fill-rule="evenodd">
        <g id="Dashboard/Illustrations/SBA" transform="translate(0.000000, 0.000000)" fill-rule="nonzero">
            <path d="M207.808989,188 L2.19101124,188 C0.98152283,188 0,187.017185 0,185.806104 L0,2.19389587 C0,0.98281508 0.98152283,0 2.19101124,0 L207.808989,0 C209.018471,0 210,0.98282124 210,2.19389587 L210,185.806104 C210,187.017179 209.018471,188 207.808989,188 L207.808989,188 Z" id="Path" fill="#FFFFFF"></path>
            <path d="M71,8 L71,55 L70.9025974,55 C57.7015574,55 47,44.4786916 47,31.5 C47,18.5213084 57.7015574,8 70.9025974,8 L71,8 Z" id="Path" fill="#3F51B5"></path>
            <path d="M65,19 L65,45 L64.9472386,45 C57.7966761,45 52,39.1797016 52,32 C52,24.8202984 57.7966761,19 64.9472386,19 L65,19 Z" id="Path" fill="#FFFFFF"></path>
            <polygon id="Path" fill="#3F3D56" points="106 95 34 95 34 32 46.8706903 32 46.8706903 32.6728002 34.6779757 32.6728002 34.6779757 94.3271998 106 94.3271998"></polygon>
            <circle id="Oval" fill="#3F51B5" cx="115.5" cy="104.5" r="6.5"></circle>
            <circle id="Oval" fill="#3F3D56" cx="175.5" cy="166.5" r="6.5"></circle>
            <circle id="Oval" fill="#3F51B5" cx="34.5" cy="93.5" r="6.5"></circle>
            <polygon id="Path" fill="#3F3D56" points="106.000168 95 122 95 122 79 90 79 90 111 106.000168 111"></polygon>
            <rect id="Rectangle" fill="#E4E4E4" x="140" y="13" width="71" height="9"></rect>
            <rect id="Rectangle" fill="#E4E4E4" x="140" y="32" width="71" height="9"></rect>
            <path d="M190,62.6036106 C190,62.7377312 189.997108,62.8688639 189.994073,63 L161.005923,63 C161.002888,62.8688639 161,62.7377312 161,62.6036106 C161,54.5382592 167.491871,48 175.5,48 C183.508129,48 190,54.5382592 190,62.6036106 Z" id="Path" fill="#E4E4E4"></path>
            <path d="M190,164.603611 C190,164.737728 189.997108,164.868864 189.994073,165 L161.005923,165 C161.002888,164.868864 161,164.737728 161,164.603611 C161,156.538259 167.491871,150 175.5,150 C183.508129,150 190,156.538259 190,164.603611 Z" id="Path" fill="#E4E4E4"></path>
            <rect id="Rectangle" fill="#3F3D56" x="175" y="77" width="1" height="73"></rect>
            <path d="M92,158 C91.9997103,170.112385 82.1658089,179.946286 70,180 L70,136 C82.1658089,136.053714 91.9997103,145.887615 92,158 L92,158 Z" id="Path" fill="#3F51B5"></path>
            <path d="M208.904874,189 L2.09512248,189 C0.938554551,189 0,188.061521 0,186.905137 L0,2.0948625 C0,0.938479027 0.938554551,0 2.09512248,0 L208.904874,0 C210.061443,0 211,0.938478481 211,2.0948625 L211,186.905137 C211,188.061522 210.061443,189 208.904874,189 Z M2.09512248,0.675 C1.31121194,0.675 0.675107699,1.31107696 0.675107699,2.0948625 L0.675107699,186.905138 C0.675107699,187.688923 1.31121194,188.325 2.09512248,188.325 L208.904874,188.325 C209.68878,188.325 210.324892,187.688918 210.324892,186.905137 L210.324892,2.0948625 C210.324892,1.31108181 209.68878,0.675 208.904874,0.675 L2.09512248,0.675 Z" id="Shape" fill="#3F3D56"></path>
            <path d="M70,56 L70,8 L70.334611,8.00131283 C83.4199244,8.05416378 94,18.7832491 94,32 C94,45.216761 83.4199244,55.9458463 70.334611,55.9986973 L70,56 Z M70.6665557,8.67833902 L70.6665557,55.3216576 C83.2515422,55.0854567 93.3313927,44.7134942 93.3313927,31.9999983 C93.3313927,19.2865024 83.2515422,8.91453989 70.6665557,8.67833902 Z" id="Shape" fill="#3F3D56"></path>
            <path d="M71,180 L70.5608039,180 C58.1008159,180 48,169.926407 48,157.5 C48,145.073593 58.1008159,135 70.5608039,135 L71,135 L71,180 Z M70.317213,135.682264 C58.3300363,135.815339 48.682684,145.544386 48.682684,157.499997 C48.682684,169.455607 58.3300363,179.184654 70.317213,179.317729 L70.317213,135.682264 Z" id="Shape" fill="#3F3D56"></path>
            <path d="M175.5,77.9997803 C167.629927,78.0435552 161.180274,71.5254818 161.009107,63.3551609 L161,63 L190,63 L189.990893,63.3551609 C189.819776,71.5255028 183.370095,78.0436054 175.5,77.9997803 Z M161.688293,63.6917416 C162.069982,71.3234377 168.140487,77.3080702 175.500002,77.3080702 C182.859516,77.3080702 188.930022,71.3234377 189.31171,63.6917416 L161.688293,63.6917416 Z" id="Shape" fill="#3F3D56"></path>
            <rect id="Rectangle" fill="#3F3D56" x="0" y="125" width="211" height="1"></rect>
            <rect id="Rectangle" fill="#3F3D56" x="0" y="63" width="211" height="1"></rect>
            <rect id="Rectangle" fill="#3F3D56" x="140" y="0" width="1" height="188"></rect>
            <rect id="Rectangle" fill="#3F3D56" x="70" y="0" width="1" height="188"></rect>
            <circle id="Oval" fill="#3F51B5" cx="49.5" cy="157.5" r="6.5"></circle>
        </g>
    </g>
</svg>
